<?xml version="1.0" encoding="utf-8"?>
<!-- Generator: Adobe Illustrator 16.0.0, SVG Export Plug-In . SVG Version: 6.00 Build 0)  -->
<!DOCTYPE svg PUBLIC "-//W3C//DTD SVG 1.1//EN" "http://www.w3.org/Graphics/SVG/1.1/DTD/svg11.dtd">
<svg version="1.1" id="图层_1" xmlns="http://www.w3.org/2000/svg" xmlns:xlink="http://www.w3.org/1999/xlink" x="0px" y="0px"
	 width="1024px" height="342.141px" viewBox="0 0 1024 342.141" enable-background="new 0 0 1024 342.141" xml:space="preserve">
<path fill="#3BA6DC" d="M225.034,53.244c-44.681-4.125-84.133,27.408-88.111,70.436c-0.367,4.012-0.415,7.989-0.163,11.886
	c-39.028,0.268-72.249,30.098-75.917,69.779c-3.902,42.26,27.19,79.685,69.444,83.589c14.88,1.375,29.102-1.682,41.526-7.947
	v-33.512c-8.501,5.342-18.713,8.12-29.487,7.124c-26.085-2.414-45.275-25.511-42.865-51.593
	c2.144-23.215,20.682-40.958,43.131-42.878c2.764-0.244,5.595-0.256,8.463,0.012c2.994,0.275,5.899,0.843,8.692,1.636
	c-0.067-2.645-0.007-5.311,0.245-8.01c0.445-4.812,1.404-9.447,2.786-13.872c9.036-28.775,36.791-48.384,67.59-45.538
	c21.149,1.959,38.951,14.058,49.199,31.147c4.937-0.75,11.364-1.289,19.163-1.057C295.208,87.498,264.737,56.919,225.034,53.244z"/>
<g>
	<rect x="188.025" y="145.15" fill="#FEFEFE" width="69.794" height="12.523"/>
	<path fill="#FEFEFE" d="M179.682,185.743h27.686c-7.081,11.377-15.424,20.857-25.034,28.451l5.691,11
		c4.039-0.259,7.332-0.638,9.869-1.141c11.117-0.762,28.191-1.648,51.201-2.654c0.762,1.006,1.775,2.396,3.038,4.173
		c1.011,1.763,1.763,2.903,2.275,3.416l11.766-7.589c-6.832-8.6-16.066-19.47-27.698-32.62l-11,6.443
		c4.551,5.567,7.962,9.735,10.243,12.522c1.008,1.266,1.765,2.146,2.275,2.654c-11.886,0.254-24.152,0.632-36.795,1.13
		c9.605-10.616,16.691-19.21,21.242-25.788h41.732v-12.519h-86.492L179.682,185.743L179.682,185.743z"/>
	<path fill="#FEFEFE" d="M305.614,159.187v-4.549h28.831v14.416c0,6.575,3.416,9.856,10.243,9.856c4.039,0,8.973,0,14.789,0
		l1.897-10.619c-4.043,0-7.837,0-11.378,0c-2.28,0-3.411-1.263-3.411-3.794v-20.859h-53.486v14.035
		c0,7.581-4.299,13.275-12.899,17.069c2.28,2.271,4.937,5.442,7.972,9.481C299.547,178.667,305.365,170.323,305.614,159.187z"/>
	<path fill="#FEFEFE" d="M363.275,195.984v-10.999H326.1v-10.626h-13.275v10.626H276.41v10.999h29.205
		c-8.604,7.843-18.967,14.291-31.104,19.341c2.776,2.793,5.438,6.074,7.969,9.869c12.636-6.578,22.761-13.908,30.345-22.004v25.041
		H326.1v-24.663c7.837,8.601,18.205,15.556,31.106,20.869c3.282-4.308,6.07-7.72,8.346-10.243
		c-13.155-4.556-24.15-10.626-33.003-18.21H363.275L363.275,195.984z"/>
</g>
<g>
	<path fill="#FEFEFE" d="M406.996,163.815c-3.311,0-6.362,0.606-9.169,1.82c-2.793,1.214-5.193,2.98-7.201,5.299
		c-2.007,2.316-3.569,5.174-4.69,8.581c-1.121,3.401-1.691,7.291-1.691,11.67c0,4.34,0.513,8.163,1.538,11.45
		c1.03,3.296,2.505,6.046,4.422,8.248c1.921,2.215,4.264,3.871,7.023,5.002c2.769,1.121,5.902,1.678,9.414,1.678
		c2.51,0,5.083-0.221,7.694-0.661c2.625-0.45,5.073-1.083,7.358-1.926v11.642c-2.318,0.737-4.819,1.313-7.507,1.734
		c-2.678,0.421-5.466,0.632-8.346,0.632c-5.62,0-10.573-0.892-14.851-2.673c-4.264-1.792-7.833-4.303-10.693-7.561
		c-2.86-3.258-5.016-7.158-6.458-11.699c-1.442-4.541-2.161-9.553-2.161-15.033c0-5.635,0.771-10.855,2.309-15.676
		c1.538-4.818,3.761-8.994,6.649-12.527c2.908-3.533,6.53-6.31,10.89-8.333c4.34-2.022,9.27-3.052,14.77-3.09
		c2.813,0,5.486,0.21,7.996,0.635c2.51,0.421,4.791,1.02,6.803,1.794V166.3c-2.645-0.922-5.112-1.564-7.402-1.933
		C411.413,164,409.176,163.815,406.996,163.815z"/>
	<path fill="#FEFEFE" d="M532.146,207.799c1.456-5.816,3.263-12.055,5.413-18.713l11.47-35.315h17.089v73.833h-12.169v-37.415
		c0-5.481,0.19-11.843,0.599-19.092h-0.45c-0.561,2.099-1.227,4.45-1.987,7.065c-0.763,2.616-1.553,5.185-2.376,7.724
		l-13.765,41.718h-7.848l-13.754-41.718c-0.829-2.539-1.619-5.106-2.381-7.724c-0.768-2.615-1.434-4.968-1.988-7.065h-0.45
		c0.394,6.808,0.594,13.149,0.594,19.043v37.464h-12.168v-73.833h16.993l11.465,35.151c1.927,5.846,3.728,12.142,5.418,18.877
		H532.146L532.146,207.799z"/>
</g>
<path fill="#FEFEFE" d="M467.532,197.258v-0.219c5.371-1.734,9.328-4.39,11.891-7.981c2.568-3.584,3.857-7.953,3.857-13.103
	c0-4.929-1.055-9.021-3.187-12.28c-2.112-3.255-5.126-5.71-9.03-7.366c-2.061-0.845-4.527-1.48-7.401-1.902
	c-2.879-0.426-5.989-0.637-9.337-0.637h-20.217v11.167h0.358h25.606h0.297c6.257,0,11.33,5.066,11.33,11.327
	c0,6.267-5.073,11.335-11.33,11.335h-5.457c-0.867,0.048-1.634,0.105-2.63,0.105h-3.686h-2.322h-12.168v39.896h12.168v-28.581h8.346
	l18.08,28.581h14.598L467.532,197.258z"/>
<g>
	<path fill="#FEFEFE" d="M186.43,254.763h4.731l3.869,15.282l3.833-15.282h3.945l3.83,15.282l3.866-15.282h4.733l-6.532,20.677
		h-3.984l-3.868-15.12l-3.907,15.12h-3.979L186.43,254.763z"/>
	<path fill="#FEFEFE" d="M215.615,254.763h4.729l3.868,15.282l3.833-15.282h3.942l3.833,15.282l3.866-15.282h4.731l-6.532,20.677
		h-3.981l-3.869-15.12l-3.907,15.12h-3.981L215.615,254.763z"/>
	<path fill="#FEFEFE" d="M244.798,254.763h4.729l3.871,15.282l3.828-15.282h3.948l3.833,15.282l3.866-15.282h4.731l-6.532,20.677
		h-3.984l-3.871-15.12l-3.902,15.12h-3.981L244.798,254.763z"/>
	<path fill="#FEFEFE" d="M281.04,270.247c0.553,0.58,0.833,1.303,0.833,2.155c0,0.905-0.292,1.644-0.865,2.203
		c-0.553,0.562-1.243,0.834-2.067,0.834c-0.778,0-1.466-0.292-2.069-0.877c-0.551-0.556-0.824-1.278-0.824-2.16
		s0.273-1.596,0.824-2.155c0.577-0.562,1.265-0.844,2.069-0.844C279.79,269.403,280.494,269.686,281.04,270.247z"/>
	<path fill="#FEFEFE" d="M284.307,254.763h4.659l5.145,14.722l4.92-14.722h4.659l-10.518,28.601h-4.58l3.418-8.398L284.307,254.763z
		"/>
	<path fill="#FEFEFE" d="M306.134,254.763h4.281v12.6c0,1.677,0.321,2.913,0.973,3.679c0.68,0.776,1.758,1.166,3.229,1.166
		c0.934,0,1.834-0.433,2.711-1.285c0.876-0.899,1.495-2.078,1.873-3.521v-12.638h4.283v20.677h-4.283v-2.673
		c-1.653,2.16-3.674,3.232-6.084,3.232c-4.651,0-6.982-2.783-6.982-8.354L306.134,254.763L306.134,254.763z"/>
	<path fill="#FEFEFE" d="M345.311,262.682v12.758h-4.278v-12.352c0-3.392-1.476-5.082-4.398-5.082c-1.059,0-1.979,0.393-2.784,1.197
		c-0.896,0.877-1.427,2.15-1.576,3.795v12.44h-4.283v-20.677h4.283v2.4c0.776-0.988,1.625-1.722,2.554-2.199
		c0.953-0.508,2.017-0.762,3.19-0.762C342.876,254.202,345.311,257.034,345.311,262.682z"/>
	<path fill="#FEFEFE" d="M363.63,246.321h4.283v29.118h-3.972v-2.198c-1.36,1.84-3.315,2.76-5.864,2.76
		c-2.879,0-5.136-1.074-6.765-3.233c-1.495-1.998-2.251-4.591-2.251-7.763c0-3.069,0.743-5.59,2.213-7.555
		c1.581-2.164,3.77-3.248,6.578-3.248c2.247,0,4.182,1.135,5.777,3.401L363.63,246.321L363.63,246.321z M354.619,259.932
		c-0.776,1.136-1.159,2.836-1.159,5.072c0,2.263,0.354,3.986,1.087,5.16c0.872,1.438,2.266,2.16,4.173,2.16
		c1.677,0,2.96-0.714,3.861-2.117c0.805-1.316,1.202-2.961,1.202-4.959v-0.319c0-2.188-0.503-3.938-1.504-5.246
		c-0.896-1.197-2.036-1.798-3.416-1.798C356.933,257.885,355.52,258.562,354.619,259.932z"/>
	<path fill="#FEFEFE" d="M372.426,254.763h4.278v12.6c0,1.677,0.326,2.913,0.978,3.679c0.675,0.776,1.753,1.166,3.233,1.166
		c0.92,0,1.825-0.433,2.702-1.285c0.876-0.899,1.504-2.078,1.878-3.521v-12.638h4.278v20.677h-4.278v-2.673
		c-1.653,2.16-3.674,3.232-6.084,3.232c-4.656,0-6.985-2.783-6.985-8.354V254.763L372.426,254.763z"/>
	<path fill="#FEFEFE" d="M410.397,257.282c1.777,2.051,2.668,4.666,2.668,7.844c0,3.143-0.881,5.729-2.635,7.76
		c-1.801,2.08-4.183,3.115-7.134,3.115c-2.956,0-5.337-1.035-7.138-3.115c-1.753-1.973-2.625-4.564-2.625-7.76
		c0-3.226,0.881-5.846,2.664-7.844c1.753-2.05,4.12-3.08,7.1-3.08C406.249,254.202,408.615,255.232,410.397,257.282z
		 M399.168,260.167c-0.829,1.278-1.246,2.933-1.246,4.959c0,1.998,0.417,3.641,1.246,4.92c0.973,1.49,2.352,2.242,4.129,2.242
		c1.777,0,3.157-0.752,4.13-2.242c0.848-1.36,1.279-2.994,1.279-4.92c0-1.998-0.431-3.65-1.279-4.959
		c-0.949-1.494-2.329-2.242-4.13-2.242C401.491,257.924,400.117,258.672,399.168,260.167z"/>
	<path fill="#FEFEFE" d="M431.539,256.002c1.547,1.305,2.52,3.24,2.897,5.803h-4.25c-0.248-1.284-0.767-2.251-1.537-2.917
		c-0.776-0.652-1.821-0.964-3.124-0.964c-1.597,0-2.842,0.623-3.719,1.884c-0.9,1.217-1.346,2.97-1.346,5.235
		c0,2.318,0.436,4.11,1.313,5.365c0.823,1.25,2.06,1.879,3.718,1.879c2.827,0,4.422-1.51,4.771-4.522h4.245
		c-0.45,2.803-1.457,4.882-3.004,6.241c-1.533,1.328-3.545,1.994-6.046,1.994c-3.008,0-5.337-1.035-6.995-3.115
		c-1.595-1.973-2.395-4.574-2.395-7.799c0-3.151,0.791-5.695,2.367-7.637c1.696-2.164,4.063-3.248,7.09-3.248
		C428.032,254.202,430.04,254.801,431.539,256.002z"/>
	<path fill="#FEFEFE" d="M449.5,254.725v4.557c-0.905-0.293-1.83-0.437-2.783-0.437c-1.155,0-2.17,0.464-3.042,1.397
		c-1.029,1.068-1.538,2.481-1.538,4.235v10.961h-4.25v-20.677h4.25v2.961c0.522-1.064,1.141-1.869,1.839-2.405
		c0.849-0.737,1.879-1.116,3.071-1.116C448.029,254.202,448.848,254.379,449.5,254.725z"/>
	<path fill="#FEFEFE" d="M467.604,257.565c0.891-1.279,1.839-2.156,2.812-2.641c0.876-0.483,1.969-0.723,3.267-0.723
		c2.008,0,3.67,0.709,4.997,2.127c1.304,1.465,1.955,3.314,1.955,5.553v13.558h-4.288v-12.758c0-1.624-0.32-2.808-0.977-3.56
		c-0.671-0.748-1.744-1.117-3.229-1.117c-1.049,0-1.926,0.428-2.63,1.274c-0.719,0.8-1.083,1.979-1.083,3.517v12.644h-4.282v-12.715
		c0-3.144-1.279-4.72-3.838-4.72c-1.246,0-2.231,0.509-2.961,1.52c-0.752,0.958-1.125,2.143-1.125,3.518v12.397h-4.277v-20.677
		h4.277v2.127c1.596-1.792,3.354-2.688,5.25-2.688C464.336,254.202,466.377,255.318,467.604,257.565z"/>
	<path fill="#FEFEFE" d="M490.14,270.247c0.541,0.58,0.819,1.303,0.819,2.155c0,0.905-0.292,1.644-0.862,2.203
		c-0.556,0.562-1.24,0.834-2.068,0.834c-0.776,0-1.461-0.292-2.061-0.877c-0.551-0.556-0.824-1.278-0.824-2.16
		s0.273-1.596,0.824-2.155c0.57-0.562,1.255-0.844,2.061-0.844C488.879,269.403,489.584,269.686,490.14,270.247z"/>
	<path fill="#FEFEFE" d="M510.193,256.002c1.548,1.305,2.516,3.24,2.894,5.803h-4.249c-0.249-1.284-0.767-2.251-1.538-2.917
		c-0.775-0.652-1.82-0.964-3.114-0.964c-1.609,0-2.851,0.623-3.727,1.884c-0.901,1.217-1.356,2.97-1.356,5.235
		c0,2.318,0.45,4.11,1.322,5.365c0.824,1.25,2.069,1.879,3.718,1.879c2.831,0,4.423-1.51,4.768-4.522h4.254
		c-0.455,2.803-1.461,4.882-3.009,6.241c-1.533,1.328-3.545,1.994-6.051,1.994c-3.005,0-5.338-1.035-6.985-3.115
		c-1.601-1.973-2.405-4.574-2.405-7.799c0-3.151,0.795-5.695,2.366-7.637c1.701-2.164,4.067-3.248,7.104-3.248
		C506.682,254.202,508.694,254.801,510.193,256.002z"/>
	<path fill="#FEFEFE" d="M532.652,257.282c1.776,2.051,2.669,4.666,2.669,7.844c0,3.143-0.883,5.729-2.636,7.76
		c-1.797,2.08-4.183,3.115-7.129,3.115c-2.956,0-5.332-1.035-7.139-3.115c-1.753-1.973-2.63-4.564-2.63-7.76
		c0-3.226,0.887-5.846,2.669-7.844c1.758-2.05,4.12-3.08,7.1-3.08C528.504,254.202,530.875,255.232,532.652,257.282z
		 M521.423,260.167c-0.828,1.278-1.234,2.933-1.234,4.959c0,1.998,0.406,3.641,1.234,4.92c0.973,1.49,2.354,2.242,4.135,2.242
		c1.769,0,3.152-0.752,4.131-2.242c0.848-1.36,1.273-2.994,1.273-4.92c0-1.998-0.427-3.65-1.273-4.959
		c-0.954-1.494-2.334-2.242-4.131-2.242C523.751,257.924,522.372,258.672,521.423,260.167z"/>
	<path fill="#FEFEFE" d="M554.743,257.565c0.896-1.279,1.835-2.156,2.812-2.641c0.872-0.483,1.97-0.723,3.264-0.723
		c2.008,0,3.67,0.709,4.997,2.127c1.303,1.465,1.959,3.314,1.959,5.553v13.558h-4.287v-12.758c0-1.624-0.321-2.808-0.974-3.56
		c-0.676-0.748-1.749-1.117-3.233-1.117c-1.055,0-1.927,0.428-2.63,1.274c-0.725,0.8-1.083,1.979-1.083,3.517v12.644h-4.287v-12.715
		c0-3.144-1.274-4.72-3.828-4.72c-1.255,0-2.237,0.509-2.971,1.52c-0.753,0.958-1.125,2.143-1.125,3.518v12.397h-4.278v-20.677
		h4.278v2.127c1.604-1.792,3.357-2.688,5.255-2.688C551.471,254.202,553.512,255.318,554.743,257.565z"/>
</g>
<rect x="613.037" y="139.281" fill="#FEFEFE" width="5.565" height="137.983"/>
<g>
	<path fill="#FEFEFE" d="M686.9,159.608l2.94,2.01c-2.002,3.131-4.211,6.221-6.654,9.285h3.617v3.393h-6.404
		c-1.304,1.55-2.636,3.043-4.011,4.49h8.016v3.08l-6.3,6.549v0.936c2.635-0.488,5.558-1.03,8.742-1.653
		c-0.104,1.304-0.158,2.487-0.182,3.552c-2.679,0.482-5.533,1.016-8.563,1.608v5.61c0.217,4.264-1.672,6.3-5.682,6.137
		c-1.403,0-3.205-0.048-5.423-0.105c-0.13-1.097-0.293-2.386-0.484-3.871c1.528,0.174,3.277,0.278,5.228,0.313
		c2.056,0.211,3.004-0.747,2.846-2.889v-4.527c-3.176,0.613-6.501,1.289-9.988,2.002l-0.59-3.756
		c2.702-0.421,6.229-0.991,10.578-1.758v-2.577l5.117-5.353h-6.554c-2.702,2.603-5.399,5.012-8.106,7.215
		c-0.661-0.967-1.418-1.939-2.309-2.94c1.896-1.407,3.664-2.836,5.293-4.272h-4.059v-3.297h7.579c1.523-1.447,3.014-2.94,4.446-4.49
		H663.33v-3.393h9.639v-5.255h-7.68v-3.411h7.68v-7.006h3.518v7.006h6.013v3.411h-6.013v5.255h2.396
		C681.813,167.422,684.481,163.662,686.9,159.608z M685.43,180.43c3.688-7.145,6.641-15.565,8.85-25.25l3.568,0.929
		c-0.646,2.819-1.403,5.612-2.247,8.405h15.264v3.708h-4.806c-0.226,8.856-2.271,16.479-6.15,22.876
		c2.971,4.287,6.859,7.646,11.693,10.051c-0.909,1.408-1.687,2.678-2.305,3.809c-4.767-2.889-8.638-6.404-11.632-10.563
		c-3.301,4.335-7.564,8.023-12.819,11.076c-0.59-0.887-1.38-2.026-2.391-3.401c5.438-2.913,9.787-6.61,13.05-11.075
		c-2.28-4.011-3.838-8.553-4.652-13.603c-0.752,1.683-1.514,3.349-2.279,4.997C687.519,181.674,686.483,181.014,685.43,180.43z
		 M693.306,171.207c0.651,6.256,2.143,11.665,4.446,16.227c2.965-5.419,4.551-11.833,4.752-19.211h-8.12
		C694.063,169.214,693.698,170.215,693.306,171.207z"/>
	<path fill="#FEFEFE" d="M747.59,164.15c4.163,3.018,8.293,6.161,12.355,9.423l-2.784,2.951c-1.346-1.255-2.759-2.49-4.225-3.727
		c-12.777,0.053-22.541,0.244-29.259,0.574c-2.06,0.104-3.817,0.297-5.278,0.564l-1.375-4.323c2.241-0.453,4.054-1.104,5.419-1.967
		c1.959-1.219,3.898-2.664,5.83-4.324h-14.731v-3.612h22.938c-0.681-1.252-1.428-2.575-2.246-3.966l3.377-1.749
		c1.471,2.443,2.587,4.341,3.296,5.715h20.121v3.612h-26.99c-3.22,2.4-6.181,4.499-8.844,6.291c7.641,0,15.436-0.086,23.417-0.261
		c-1.078-0.843-2.175-1.679-3.325-2.522L747.59,164.15z M719.966,176.922h34.814v21.285c0,4.054-2.28,6.08-6.852,6.08
		c-1.527,0-3.4-0.016-5.629-0.054c-0.063-0.34-0.32-1.749-0.775-4.221c2.246,0.34,4.302,0.519,6.16,0.519
		c2.176,0,3.312-0.988,3.368-2.941v-1.596h-27.375v8.752h-3.713L719.966,176.922L719.966,176.922z M751.054,180.43h-27.375v4.378
		h27.375V180.43z M723.679,192.592h27.375v-4.373h-27.375V192.592z"/>
	<path fill="#FEFEFE" d="M762.939,186.614c3.646-5.738,6.247-11.92,7.799-18.55h-7.312v-3.507h7.622v-10.154h3.526v10.154h6.854
		v3.507h-6.854v8.547l1.954-2.056c2.506,2.4,4.483,4.369,5.917,5.874l-2.635,2.836c-2.004-2.339-3.752-4.269-5.236-5.821v27.207
		h-3.526v-27.624c-1.739,5.831-3.909,10.53-6.491,14.114C764.036,189.608,763.49,188.095,762.939,186.614z M788.714,161.618v17.063
		c0,12.303-2.918,21.213-8.763,26.737c-0.915-1.164-1.873-2.338-2.879-3.508c5.141-4.767,7.728-12.207,7.728-22.306v-21.903h18.19
		v38.757c0,1.709,0.573,2.572,1.705,2.572h1.131c1.039,0,1.705-0.964,2.002-2.88c0.321-2.646,0.557-5.5,0.681-8.562
		c1.149,0.59,2.387,1.131,3.724,1.652c-0.303,3.401-0.58,6.176-0.888,8.346c-0.513,3.646-2.185,5.461-4.986,5.461h-2.602
		c-3.114,0-4.689-1.953-4.689-5.873v-35.559L788.714,161.618L788.714,161.618z"/>
	<path fill="#FEFEFE" d="M813.017,186.983c3.384-5.572,5.783-11.671,7.188-18.308h-6.846v-3.447h6.889v-10.197h3.378v10.197h6.356
		v3.447h-6.356v6.958l1.365-1.495c2.218,2.137,4.513,4.403,6.897,6.803l-2.602,2.837c-2.018-2.434-3.904-4.552-5.662-6.334v27.619
		h-3.378v-26.536c-1.591,5.356-3.487,9.69-5.672,12.987C814.157,190.025,813.625,188.521,813.017,186.983z M829.104,172.956
		c3.646-5.431,6.566-11.607,8.742-18.553l3.762,1.289c-0.939,2.376-1.846,4.584-2.731,6.647h21.07
		c-0.45,17.558-0.771,28.417-0.963,32.568c-0.174,3.612-0.949,6.084-2.349,7.426c-1.351,1.336-3.751,2.008-7.243,2.008
		c-2.572,0-5.261-0.086-8.072-0.254c-0.191-1.375-0.47-2.889-0.828-4.543c3.219,0.385,6.146,0.608,8.757,0.672
		c2.242,0.043,3.766-0.373,4.542-1.235c0.813-0.719,1.27-2.286,1.375-4.69c0.225-4.627,0.493-14.031,0.824-28.19h-18.828
		c-1.726,3.586-3.401,6.587-5.04,9.032C831.313,174.47,830.307,173.747,829.104,172.956z M843.089,179.605l2.975-1.653
		c2.382,4.332,4.845,9.064,7.389,14.182l-3.475,1.959c-0.396-0.934-0.8-1.854-1.217-2.793c-4.249,0.277-8.417,0.59-12.514,0.938
		c-1.016,0.097-2.443,0.354-4.307,0.767l-1.683-3.707c1.054-0.758,1.937-1.691,2.649-2.783c2.678-4.432,5.313-9.879,7.924-16.344
		l3.665,1.603c-1.916,4.476-4.849,10.041-8.791,16.748c4.689-0.14,8.547-0.269,11.584-0.407
		C845.982,185.258,844.593,182.422,843.089,179.605z"/>
	<path fill="#FEFEFE" d="M863.229,175.897h48.606v4.532h-48.606V175.897z"/>
	<path fill="#FEFEFE" d="M913.264,195.84c3.411-0.604,6.908-1.264,10.474-1.982c2.228-8.249,3.855-15.646,4.867-22.189l3.967,0.983
		c-1.523,6.657-3.178,13.479-4.987,20.431c1.926-0.394,3.871-0.818,5.864-1.261c0.062,1.515,0.182,2.765,0.34,3.757
		c-6.971,1.479-13.515,2.922-19.604,4.336L913.264,195.84z M913.938,165.281h20.146v3.603h-20.146V165.281z M915.602,173.27
		l3.378-0.932c1.438,5.298,2.765,10.841,4,16.643l-3.616,1.03C918.289,184.353,917.038,178.767,915.602,173.27z M919.362,155.44
		l3.478-1.603c1.31,2.516,2.654,5.344,4.049,8.501l-3.654,1.749C922.083,161.104,920.795,158.214,919.362,155.44z M935.119,180.28
		h9.284v-25.927h3.903v10.614h13.593v3.917h-13.593v11.398h10.86v24.678h-3.722v-3.047h-16.619v3.047h-3.708L935.119,180.28
		L935.119,180.28z M955.446,183.883h-16.619v14.426h16.619V183.883z"/>
	<path fill="#FEFEFE" d="M662.894,227.513h27.192c-0.139-3.167-0.234-6.544-0.307-10.095h4.159
		c-0.016,3.401,0.037,6.77,0.147,10.095h16.82v3.86h-16.653c0.643,17.323,3.383,27.834,8.25,31.553
		c1.754,1.514,2.989,1.098,3.713-1.235c0.488-1.792,0.925-4.437,1.313-7.942c1.532,0.578,2.854,1.033,3.972,1.336
		c-0.628,4.028-1.289,7.268-2.003,9.74c-0.79,2.375-2.29,3.559-4.508,3.559c-2.247,0-4.479-1.211-6.697-3.611
		c-4.656-5.223-7.33-16.342-8.001-33.396h-27.398V227.513z M663.086,260.195c3.688-0.475,7.464-0.978,11.34-1.532v-14.445h-9.52
		v-3.86h22.972v3.86h-9.442v13.861c3.805-0.565,7.688-1.175,11.686-1.813c-0.053,1.342-0.096,2.734-0.096,4.188
		c-9.799,1.471-18.454,2.826-25.957,4.063L663.086,260.195z M697.708,220.465l2.348-2.631c2.344,1.777,4.725,3.813,7.14,6.076
		l-2.788,3.041C702.317,224.729,700.085,222.549,697.708,220.465z"/>
	<path fill="#FEFEFE" d="M716.431,220.566h13.783v41.784c0,3.436-1.505,5.15-4.542,5.15c-1.651,0-3.21-0.054-4.638-0.158
		c-0.129-1.025-0.33-2.242-0.589-3.65c1.662,0.278,3.095,0.417,4.307,0.417c1.332,0,2.008-0.714,2.008-2.116v-11.849h-6.854
		c0.096,7.89-1.246,13.933-4.055,18.08c-0.714-1.001-1.608-1.96-2.683-2.879c2.17-3.536,3.263-8.558,3.263-15.054V220.566
		L716.431,220.566z M726.76,223.911h-6.854v9.901h6.854V223.911z M719.904,246.95h6.854v-9.957h-6.854V246.95z M734.286,220.768
		h24.145c-0.152,2.783-0.287,4.979-0.388,6.605c-0.254,5.313-2.831,7.914-7.718,7.818c-1.342-0.033-3.439-0.096-6.319-0.195
		c-0.201-1.343-0.393-2.697-0.627-4.072c2.409,0.312,4.584,0.492,6.491,0.556c2.821,0.104,4.336-1.299,4.551-4.211
		c0.105-0.905,0.184-1.878,0.254-2.94h-16.672v14.842h20.63v3.031c-1.304,6.036-3.68,11.282-7.163,15.748
		c2.822,2.816,6.319,5.012,10.487,6.567c-1.116,1.364-2.055,2.61-2.826,3.708c-4.015-1.969-7.416-4.432-10.209-7.368
		c-2.478,2.593-5.409,4.877-8.771,6.854c-0.613-1.131-1.284-2.262-2.007-3.396c3.262-1.754,6.073-3.843,8.44-6.29
		c-3.177-4.288-5.274-9.457-6.291-15.513h-2.29v25.616h-3.717V220.768L734.286,220.768z M754.78,242.513h-11.139
		c1.017,4.948,2.816,9.155,5.408,12.623C751.743,251.543,753.641,247.342,754.78,242.513z"/>
	<path fill="#FEFEFE" d="M777.168,217.055l3.67,1.652c-0.738,1.27-1.495,2.506-2.295,3.703h26.449v3.463
		c-3.037,3.881-7.187,7.277-12.441,10.172c5.472,2.099,11.996,3.396,19.575,3.891c-1.035,1.552-1.945,2.994-2.74,4.335
		c-8.483-1.183-15.607-3.187-21.361-6.003c-6.474,2.895-14.297,5.193-23.466,6.87c-0.556-1.06-1.235-2.261-2.017-3.599
		c8.168-1.326,15.268-3.205,21.271-5.623c-3.714-2.381-6.688-5.203-8.916-8.477c-2.534,3.167-5.327,6.096-8.397,8.791
		c-0.968-1.105-1.868-2.021-2.679-2.788C769.814,228.433,774.26,222.971,777.168,217.055z M766.901,247.256h14.224
		c0.234-1.664,0.426-3.526,0.594-5.563h3.957c-0.215,2.036-0.436,3.899-0.661,5.563h19.733c-0.33,6.15-0.633,10.457-0.93,12.938
		c-0.521,4.834-3.263,7.282-8.217,7.306c-1.921,0.043-4.8-0.022-8.656-0.201c-0.201-1.278-0.437-2.701-0.737-4.268
		c3.751,0.33,6.854,0.521,9.299,0.555c2.77-0.07,4.292-1.543,4.595-4.422c0.298-2.582,0.498-5.322,0.627-8.25h-16.298
		c-1.729,8.271-7.795,14.254-18.21,17.98c-0.757-1.131-1.547-2.279-2.399-3.445c9.352-3.203,14.895-8.043,16.624-14.535h-13.543
		L766.901,247.256L766.901,247.256z M799.766,225.816h-21.841c2.615,3.315,5.993,6.046,10.128,8.188
		C792.757,231.69,796.666,228.956,799.766,225.816z"/>
	<path fill="#FEFEFE" d="M845.086,245.958c4.824,5.672,9.615,11.693,14.377,18.047l-3.674,2.889
		c-1.164-1.705-2.338-3.357-3.512-4.979c-11.694,0.428-21.582,0.926-29.642,1.472c-1.397,0.168-2.721,0.444-3.947,0.829l-1.96-4.743
		c1.96-1.001,3.584-2.323,4.893-3.968c3.507-4.465,6.727-9.313,9.711-14.539h-17.64v-3.813h47.82v3.813H836.63
		c-4.892,7.68-9.112,13.744-12.662,18.199c11.114-0.297,19.687-0.574,25.697-0.832c-2.597-3.483-5.198-6.856-7.799-10.096
		L845.086,245.958z M818.244,221.333h38.671v3.813h-38.671V221.333z"/>
	<path fill="#FEFEFE" d="M863.761,245.56h21.663v-21.544h-19.455v-3.973h43.224v3.973h-19.656v21.544h21.812v3.967h-21.812v18.957
		h-4.111v-18.957h-21.663L863.761,245.56L863.761,245.56z M868.46,229.688l3.081-2.271c3.655,4.498,6.793,8.85,9.433,13.041
		l-3.459,2.727C874.995,238.891,871.991,234.393,868.46,229.688z M893.354,240.404c3.582-3.989,6.812-8.384,9.687-13.188l3.66,2.473
		c-3.681,5.323-7.124,9.777-10.319,13.4L893.354,240.404z"/>
	<path fill="#FEFEFE" d="M947.824,224.379c5.121,5.012,9.96,10.146,14.521,15.402l-3.479,3.043c-1.298-1.619-2.62-3.201-3.952-4.768
		c-14.626,0.643-25.817,1.207-33.545,1.672c-1.792,0.139-3.521,0.416-5.185,0.823l-1.608-4.427c1.504-0.594,2.854-1.395,4.053-2.42
		c5.576-4.81,10.688-10.361,15.316-16.651l3.659,2.37c-4.887,6.052-9.988,11.427-15.302,16.137
		c9.988-0.331,19.811-0.705,29.487-1.141c-2.237-2.56-4.509-5.051-6.799-7.469L947.824,224.379z M955.01,244.836v23.389H951v-3.4
		h-26.891v3.4h-4.021v-23.389H955.01z M951,248.645h-26.891v12.471H951V248.645z"/>
</g>
</svg>
